<?xml version="1.0" encoding="UTF-8" standalone="yes"?>
<!DOCTYPE svg PUBLIC "-//W3C//DTD SVG 1.1//EN" "http://www.w3.org/Graphics/SVG/1.1/DTD/svg11.dtd">

<svg width="1000" height="1000" viewBox="0 0 1000 1000" xmlns="http://www.w3.org/2000/svg" xmlns:xlink="http://www.w3.org/1999/xlink" version="1.1" baseProfile="full">
    <g transform="scale(1,-1) translate(0,-1000)">
        <path d="M 250.102144 153.371117 L 250.276344 157.238875 L 250.798946 161.158411 L 251.669950 165.129730 L 252.889358 169.152835 L 254.457171 173.227730 L 256.373391 177.354418 L 261.251057 185.763191 L 264.061827 189.753362 L 266.919673 193.211503 L 269.824595 196.137618 L 272.776598 198.531709 L 275.775684 200.393776 L 278.821856 201.723822 L 281.915116 202.521848 L 285.055467 202.787856 L 289.405803 202.382958 L 293.718457 201.168260 L 297.993446 199.143755 L 302.230788 196.309437 L 306.185645 192.947822 L 309.613173 189.341389 L 312.513383 185.490127 L 314.886286 181.394026 L 317.296868 173.258340 L 318.671645 170.113287 L 320.385407 167.307235 L 322.438160 164.840171 L 324.829908 162.712083 L 328.897745 158.644246 L 333.266921 153.672434 L 337.033438 149.679922 L 339.895987 146.139394 L 341.929908 143.050846 L 343.210520 140.414290 L 333.869555 141.468911 L 332.118120 141.836148 L 330.479685 142.485870 L 328.954248 143.418081 L 327.541807 144.632786 L 324.726329 147.071613 L 321.703701 149.265607 L 318.473913 151.214776 L 315.036956 152.919130 L 311.505838 154.303332 L 307.993562 155.292042 L 304.500119 155.885265 L 301.025497 156.083005 L 295.488726 155.706356 L 287.918013 154.576397 L 280.874616 153.220453 L 276.919770 152.165826 L 276.034639 151.469021 L 275.789814 150.282572 L 276.185297 148.606474 L 277.221087 146.440722 L 277.748412 145.536757 L 278.727695 144.030140 L 287.522544 136.713663 L 295.225071 129.227720 L 301.835298 121.572283 L 307.353246 113.747320 L 311.703594 106.035356 L 314.810974 98.718903 L 316.675396 91.797935 L 317.141500 88.485752 L 317.296868 85.272430 L 316.774267 76.821269 L 315.206464 68.793864 L 312.593453 61.190208 L 308.935232 54.010294 L 304.231798 47.254116 L 298.483146 40.921667 L 291.689273 35.012941 L 283.850176 29.527931 L 277.089255 25.601318 L 269.763376 21.957205 L 261.872532 18.595587 L 253.416714 15.516463 L 244.395916 12.719829 L 234.810128 10.205683 L 224.659343 7.974022 L 213.943553 6.024843 L 199.065778 3.915585 L 183.962066 2.408978 L 168.632359 1.505017 L 153.076602 1.203697 L 145.637713 1.580346 L 138.085856 2.710298 L 130.421002 4.593557 L 122.643126 7.230130 L 112.605332 11.636959 L 101.475289 17.625710 L 89.252951 25.196407 L 75.938273 34.349075 L 72.830894 36.853809 L 68.631236 40.752145 L 56.955016 52.729692 L 51.964366 57.588519 L 47.237391 61.317372 L 42.774074 63.916262 L 38.574397 65.385202 L 30.288054 67.720441 L 21.700387 71.110312 L 15.372617 74.161198 L 10.250155 77.287404 L 6.332987 80.488941 L 3.621093 83.765822 L 2.415807 83.765822 L 1.210520 96.722655 L 28.630784 95.818681 L 36.257997 96.421321 L 44.977470 98.229245 L 54.789240 101.242460 L 65.693341 105.460975 L 94.921567 117.513859 L 110.891579 123.540272 L 118.707131 125.800196 L 126.635656 127.758792 L 134.677163 129.416062 L 142.831659 130.772007 L 151.099151 131.826629 L 159.479647 132.579929 L 167.973155 133.031907 L 176.579683 133.182567 L 186.240826 132.928328 L 195.638278 132.165610 L 204.772070 130.894411 L 213.642236 129.114729 L 222.870222 126.412251 L 233.077473 122.372669 L 244.264025 116.995967 L 256.429916 110.282128 L 257.861186 109.905472 L 259.744449 109.980800 L 261.627703 110.056137 L 263.058982 109.679482 L 258.011845 120.903714 L 254.320651 130.470667 L 252.475054 136.534780 L 251.156771 142.372876 L 250.365801 147.984981 L 250.102144 153.371117 Z" transform="scale(1.000000,1.000000) translate(326.000000,398.000000)" opacity="1.000000"></path>
        <path d="M 180.855000 2.007100 L 181.309300 2.024900 L 196.639000 2.928900 L 197.103500 2.965700 L 212.207200 4.472300 L 212.680000 4.529400 L 227.557700 6.638700 L 228.001600 6.710400 L 238.717300 8.659600 L 239.128600 8.742200 L 249.279400 10.973900 L 249.727600 11.081900 L 259.313400 13.596000 L 259.801200 13.735500 L 268.822000 16.532200 L 269.351500 16.710500 L 277.807400 19.789700 L 278.379700 20.015600 L 286.270500 23.377200 L 286.885100 23.660700 L 294.211000 27.304800 L 294.864800 27.656800 L 301.625700 31.583400 L 302.443000 32.105400 L 310.282100 37.590400 L 311.236000 38.335600 L 318.029900 44.244300 L 318.997800 45.191900 L 324.746500 51.524300 L 325.669900 52.683500 L 330.373300 59.439700 L 331.181800 60.789500 L 334.840100 67.969400 L 335.469100 69.452700 L 338.082100 77.056400 L 338.493200 78.589400 L 340.061000 86.616800 L 340.252300 88.111400 L 340.774900 96.562600 L 340.783400 97.827800 L 340.628000 101.041100 L 340.529200 102.088200 L 340.063100 105.400400 L 339.779500 106.789200 L 337.915100 113.710200 L 337.395800 115.214400 L 334.288400 122.530800 L 333.719800 123.685500 L 329.369400 131.397500 L 328.751500 132.374700 L 323.233500 140.199600 L 322.539400 141.088000 L 315.929200 148.743500 L 315.240000 149.474500 L 308.317300 156.202600 L 308.729500 156.264100 L 313.088900 156.560700 L 315.206600 156.440200 L 317.465400 156.056700 L 319.840100 155.388200 L 322.375300 154.394400 L 324.939500 153.122800 L 327.343500 151.671900 L 329.571000 150.055100 L 332.043300 147.913600 L 333.455700 146.698900 L 334.957500 145.605300 L 336.483000 144.673100 L 338.240500 143.795700 L 339.878900 143.145900 L 341.758100 142.580900 L 343.509500 142.213600 L 344.579300 142.041500 L 353.920300 140.986800 L 355.578600 140.914500 L 357.168400 141.067400 L 358.677700 141.428900 L 360.094500 141.982000 L 361.407100 142.709900 L 362.603400 143.595800 L 363.671600 144.622900 L 364.599800 145.774200 L 365.376000 147.033000 L 365.988400 148.382400 L 366.425000 149.805600 L 366.674000 151.285700 L 366.723300 152.805900 L 366.561200 154.349300 L 366.175700 155.899200 L 365.554800 157.438600 L 364.274200 160.075200 L 363.534300 161.375700 L 361.500400 164.464200 L 360.838700 165.369600 L 357.976100 168.910200 L 357.398400 169.571400 L 353.771900 173.415500 L 349.536100 178.235500 L 349.029400 178.775900 L 344.961600 182.843800 L 344.474200 183.303500 L 342.726700 184.858400 L 341.762200 186.017600 L 340.894800 187.437800 L 340.120100 189.210200 L 337.912400 196.661000 L 337.448800 197.941700 L 336.837100 199.158600 L 334.464200 203.254700 L 333.699800 204.408000 L 330.799600 208.259300 L 329.949000 209.263700 L 326.521500 212.870100 L 325.633500 213.710100 L 321.678700 217.071700 L 320.624500 217.868100 L 316.387200 220.702500 L 314.915400 221.537200 L 310.640400 223.561700 L 308.836200 224.237500 L 304.523500 225.452200 L 302.471500 225.833400 L 298.121100 226.238300 L 296.084800 226.246800 L 292.944400 225.980800 L 291.042300 225.657200 L 287.949000 224.859200 L 286.220100 224.263000 L 283.173900 222.932900 L 281.709600 222.163800 L 278.710500 220.301700 L 277.532800 219.463500 L 274.580800 217.069400 L 273.663300 216.239700 L 270.758400 213.313600 L 270.055000 212.537300 L 267.197100 209.079200 L 266.660200 208.376000 L 263.849400 204.385800 L 263.303400 203.533400 L 258.425800 195.124600 L 257.943000 194.197700 L 256.026800 190.071000 L 255.724100 189.357200 L 254.156300 185.282300 L 253.883700 184.488600 L 252.664300 180.465500 L 252.436900 179.593300 L 251.565900 175.622000 L 251.399800 174.678200 L 250.877200 170.758700 L 250.787900 169.756200 L 250.613700 165.888500 L 250.615800 164.808800 L 250.879500 159.422700 L 250.978300 158.380000 L 251.769300 152.767900 L 251.939200 151.839800 L 253.257400 146.001700 L 253.473300 145.186400 L 254.218300 142.738500 L 250.059200 144.737500 L 249.309300 145.065700 L 239.102000 149.105300 L 238.102300 149.448700 L 228.874300 152.151100 L 227.904400 152.390000 L 219.034300 154.169700 L 218.357300 154.284600 L 209.223500 155.555800 L 208.568500 155.627900 L 199.171100 156.390600 L 198.543300 156.424300 L 188.882200 156.678500 L 188.378400 156.680800 L 179.771800 156.530100 L 179.362000 156.515600 L 170.868500 156.063600 L 170.450000 156.033700 L 162.069500 155.280400 L 161.643900 155.234100 L 153.376400 154.179500 L 152.945300 154.116200 L 144.790800 152.760200 L 144.355900 152.679300 L 136.314400 151.022000 L 135.877600 150.923100 L 127.949100 148.964500 L 127.512600 148.847600 L 119.697100 146.587600 L 118.831400 146.299600 L 102.861400 140.273200 L 102.537400 140.145300 L 73.426900 128.141000 L 63.022300 124.115700 L 54.115800 121.380500 L 46.630800 119.828500 L 40.366600 119.333600 L 13.589400 120.216400 L 11.068100 120.025000 L 8.731600 119.319700 L 6.636500 118.160600 L 4.839300 116.607600 L 3.396500 114.720800 L 2.364600 112.560100 L 1.800300 110.185700 L 1.759900 107.657400 L 2.965200 94.700600 L 3.371600 92.554500 L 4.151300 90.575600 L 5.264100 88.800400 L 6.669800 87.265800 L 8.328000 86.008300 L 9.084700 85.626600 L 9.473400 85.156900 L 11.055400 83.584600 L 14.972500 80.383000 L 16.259300 79.471000 L 21.381700 76.344800 L 22.378100 75.802300 L 28.705900 72.751400 L 29.477900 72.413500 L 38.065600 69.023600 L 39.168600 68.651500 L 47.113000 66.412600 L 49.938300 65.424500 L 52.750600 63.787000 L 56.370900 60.931200 L 60.825900 56.593900 L 72.396500 44.724600 L 72.807400 44.323600 L 77.007100 40.425300 L 77.613800 39.900300 L 80.721200 37.395600 L 81.423700 36.872200 L 94.738400 27.719500 L 95.197200 27.419900 L 107.419600 19.849200 L 108.026200 19.498600 L 119.156200 13.509800 L 119.982400 13.107000 L 130.020200 8.700200 L 130.951100 8.338800 L 138.729000 5.702300 L 139.677000 5.425700 L 147.341900 3.542400 L 148.384100 3.336900 L 155.935900 2.206900 L 157.056100 2.095000 L 164.495000 1.718400 L 165.299300 1.705800 Z M 157.637700 13.580300 L 150.085800 14.710200 L 142.421000 16.593500 L 134.643100 19.230100 L 124.605300 23.636900 L 113.475200 29.625700 L 101.252900 37.196400 L 87.938200 46.349000 L 84.830800 48.853800 L 80.631200 52.752100 L 68.955000 64.729600 L 63.964300 69.588500 L 59.237300 73.317300 L 54.774000 75.916200 L 50.574300 77.385200 L 42.288000 79.720400 L 33.700300 83.110300 L 27.372600 86.161100 L 22.250100 89.287400 L 18.332900 92.488900 L 15.621000 95.765800 L 14.415800 95.765800 L 13.210500 108.722600 L 40.630700 107.818600 L 48.257900 108.421300 L 56.977400 110.229200 L 66.789200 113.242400 L 77.693300 117.460900 L 106.921500 129.513800 L 122.891500 135.540200 L 130.707100 137.800100 L 138.635600 139.758700 L 146.677100 141.416000 L 154.831600 142.772000 L 163.099100 143.826600 L 171.479600 144.579900 L 179.973100 145.031900 L 188.579600 145.182500 L 198.240800 144.928300 L 207.638200 144.165600 L 216.772000 142.894400 L 225.642200 141.114700 L 234.870200 138.412200 L 245.077400 134.372600 L 256.264000 128.995900 L 268.429900 122.282100 L 269.861100 121.905400 L 271.744400 121.980700 L 273.627700 122.056100 L 275.058900 121.679400 L 270.011800 132.903700 L 266.320600 142.470600 L 264.475000 148.534700 L 263.156700 154.372800 L 262.365800 159.984900 L 262.102100 165.371100 L 262.276300 169.238800 L 262.798900 173.158400 L 263.669900 177.129700 L 264.889300 181.152800 L 266.457100 185.227700 L 268.373300 189.354400 L 273.251000 197.763100 L 276.061800 201.753300 L 278.919600 205.211500 L 281.824500 208.137600 L 284.776500 210.531700 L 287.775600 212.393700 L 290.821800 213.723800 L 293.915100 214.521800 L 297.055400 214.787800 L 301.405800 214.382900 L 305.718400 213.168200 L 309.993400 211.143700 L 314.230700 208.309400 L 318.185600 204.947800 L 321.613100 201.341300 L 324.513300 197.490100 L 326.886200 193.394000 L 329.296800 185.258300 L 330.671600 182.113200 L 332.385400 179.307200 L 334.438100 176.840100 L 336.829900 174.712000 L 340.897700 170.644200 L 345.266900 165.672400 L 349.033400 161.679900 L 351.895900 158.139300 L 353.929900 155.050800 L 355.210500 152.414200 L 345.869500 153.468900 L 344.118100 153.836100 L 342.479600 154.485800 L 340.954200 155.418000 L 339.541800 156.632700 L 336.726300 159.071600 L 333.703700 161.265600 L 330.473900 163.214700 L 327.036900 164.919100 L 323.505800 166.303300 L 319.993500 167.292000 L 316.500100 167.885200 L 313.025400 168.083000 L 307.488700 167.706300 L 299.918000 166.576300 L 292.874600 165.220400 L 288.919700 164.165800 L 288.034600 163.469000 L 287.789800 162.282500 L 288.185200 160.606400 L 289.221000 158.440700 L 289.748400 157.536700 L 290.727600 156.030100 L 299.522500 148.713600 L 307.225000 141.227700 L 313.835200 133.572200 L 319.353200 125.747300 L 323.703500 118.035300 L 326.810900 110.718900 L 328.675300 103.797900 L 329.141500 100.485700 L 329.296800 97.272400 L 328.774200 88.821200 L 327.206400 80.793800 L 324.593400 73.190200 L 320.935200 66.010200 L 316.231700 59.254100 L 310.483100 52.921600 L 303.689200 47.012900 L 295.850100 41.527900 L 289.089200 37.601300 L 281.763300 33.957200 L 273.872500 30.595500 L 265.416700 27.516400 L 256.395900 24.719800 L 246.810100 22.205600 L 236.659300 19.974000 L 225.943500 18.024800 L 211.065700 15.915500 L 195.962000 14.408900 L 180.632300 13.505000 L 165.076600 13.203600 Z" transform="scale(1.000000,1.000000) translate(314.000000,386.000000)" fill="#feeb0a" opacity="1.000000"></path>
    </g>
</svg>