<?xml version="1.0" encoding="UTF-8" standalone="yes"?>
<!DOCTYPE svg PUBLIC "-//W3C//DTD SVG 1.1//EN" "http://www.w3.org/Graphics/SVG/1.1/DTD/svg11.dtd">

<svg width="800" height="800" viewBox="0 0 800 800" xmlns="http://www.w3.org/2000/svg" xmlns:xlink="http://www.w3.org/1999/xlink" version="1.1" baseProfile="full">
    <defs>
        <linearGradient id="105553182556880105553156831680" x1="100.000000%" x2="100.000000%" y1="0.000000%" y2="100.000000%">
            <stop offset="0%" style="stop-color:#272727;stop-opacity:1.000000"></stop>
            <stop offset="100%" style="stop-color:#6d7171;stop-opacity:1.000000"></stop>
        </linearGradient>
        <linearGradient id="105553182568400105553156793312" x1="100.000000%" x2="100.000000%" y1="0.000000%" y2="100.000000%">
            <stop offset="0%" style="stop-color:#272727;stop-opacity:1.000000"></stop>
            <stop offset="100%" style="stop-color:#6d7171;stop-opacity:1.000000"></stop>
        </linearGradient>
        <linearGradient id="105553182564720105553156606144" x1="100.000000%" x2="100.000000%" y1="0.000000%" y2="100.000000%">
            <stop offset="0%" style="stop-color:#272727;stop-opacity:1.000000"></stop>
            <stop offset="100%" style="stop-color:#6d7171;stop-opacity:1.000000"></stop>
        </linearGradient>
    </defs>
    <g transform="scale(1,-1) translate(0,-800)">
        <path d="M 222.057631 164.327252 L 221.693432 158.685541 L 220.600835 153.304971 L 218.779837 148.185537 L 216.230434 143.327235 L 212.952625 138.730059 L 208.946405 134.394007 L 204.211772 130.319073 L 198.748725 126.505253 L 198.336423 122.794518 L 198.198986 119.358654 L 198.570057 114.658381 L 199.683273 110.342941 L 201.538639 106.412321 L 204.136160 102.866504 L 204.474591 102.533226 L 205.160042 101.918209 L 207.572008 99.842954 L 216.560247 92.311527 L 211.830761 92.323551 L 207.372720 92.579521 L 203.186121 93.079436 L 199.270961 93.823299 L 195.627236 94.811108 L 192.254943 96.042866 L 189.154078 97.518574 L 186.324638 99.238230 L 184.340418 100.712221 L 182.455844 102.385486 L 178.985626 106.329848 L 175.913971 111.071335 L 173.240865 116.609962 L 165.379604 115.455511 L 157.408400 115.070695 L 152.893664 115.249358 L 148.255257 115.785351 L 143.493158 116.678675 L 138.607349 117.929335 L 137.509588 121.463134 L 136.140399 124.917899 L 134.499779 128.293632 L 132.587725 131.590337 L 130.404237 134.808016 L 127.949313 137.946673 L 125.222949 141.006311 L 122.225146 143.986933 L 118.845961 146.916020 L 115.415249 149.491206 L 111.933005 151.712493 L 108.399226 153.579882 L 104.813909 155.093375 L 101.177051 156.252974 L 97.488649 157.058680 L 93.748699 157.510496 L 93.006552 161.358667 L 92.759170 164.327252 L 93.054651 169.249145 L 93.941098 173.954566 L 95.418512 178.443518 L 97.486895 182.716006 L 100.146250 186.772033 L 103.396579 190.611605 L 107.237885 194.234724 L 111.670169 197.641396 L 116.449472 200.656382 L 121.496757 203.269364 L 126.812030 205.480344 L 132.395296 207.289323 L 138.246560 208.696304 L 144.365828 209.701288 L 150.753107 210.304277 L 157.408400 210.505273 L 164.063694 210.304277 L 170.450973 209.701288 L 176.570243 208.696304 L 182.421508 207.289323 L 188.004775 205.480344 L 193.320047 203.269364 L 198.367331 200.656382 L 203.146631 197.641396 L 207.578913 194.234724 L 211.420218 190.611605 L 214.670547 186.772033 L 217.329902 182.716006 L 219.398287 178.443518 L 220.875701 173.954566 L 221.762149 169.249145 L 222.057631 164.327252 Z M 203.586422 67.463354 L 203.335606 64.048951 L 202.583156 60.732480 L 201.329071 57.513937 L 199.573349 54.393320 L 197.315989 51.370626 L 194.556989 48.445851 L 191.296347 45.618993 L 187.534062 42.890049 L 183.383527 40.326025 L 178.958135 37.993928 L 174.257880 35.893757 L 169.282760 34.025509 L 164.032768 32.389183 L 158.507902 30.984777 L 152.708157 29.812291 L 146.633529 28.871721 L 145.156102 25.088820 L 143.472530 21.601412 L 141.582808 18.409496 L 139.486936 15.513067 L 137.184912 12.912125 L 134.676732 10.606666 L 131.962396 8.596687 L 129.041901 6.882187 L 126.360201 5.619501 L 123.427692 4.525176 L 120.244370 3.599210 L 116.810231 2.841603 L 109.189494 1.831463 L 100.565454 1.494751 L 105.049275 3.638735 L 108.935246 6.112555 L 112.223370 8.916214 L 114.913648 12.049714 L 117.006083 15.513058 L 118.500677 19.306251 L 119.397431 23.429295 L 119.696349 27.882192 L 113.718783 28.327137 L 107.935358 29.002282 L 102.346071 29.907628 L 96.950916 31.043178 L 91.749889 32.408932 L 86.742984 34.004891 L 81.930196 35.831057 L 77.311522 37.887430 L 72.991764 40.117313 L 69.075731 42.464008 L 65.563419 44.927519 L 62.454826 47.507847 L 59.749949 50.204994 L 57.448786 53.018965 L 55.551334 55.949760 L 54.057590 58.997383 L 54.110202 58.994377 L 54.213062 58.985357 L 54.569532 58.949281 L 55.885463 58.804975 L 60.929319 58.227749 L 67.375003 57.650523 L 73.408380 57.458115 L 78.660117 57.611010 L 83.750355 58.069695 L 88.679098 58.834171 L 93.446350 59.904439 L 98.052116 61.280501 L 102.496399 62.962357 L 106.779204 64.950009 L 110.900535 67.243458 L 116.672810 71.134586 L 121.785386 75.331493 L 126.238267 79.834184 L 130.031456 84.642665 L 133.164955 89.756939 L 135.638769 95.177011 L 137.452899 100.902885 L 138.607349 106.934567 L 144.630438 106.805724 L 150.440489 106.419191 L 156.037506 105.774970 L 161.421495 104.873058 L 166.592459 103.713456 L 171.550403 102.296161 L 176.295334 100.621173 L 180.827254 98.688492 L 186.161454 95.891691 L 190.784419 92.778800 L 194.696152 89.349814 L 197.896656 85.604732 L 200.385932 81.543548 L 202.163984 77.166259 L 203.230813 72.472862 L 203.586422 67.463354 Z M 134.209442 111.002631 L 133.913101 106.010302 L 133.024077 101.203523 L 131.542368 96.582290 L 129.467971 92.146598 L 126.800885 87.896443 L 123.541107 83.831823 L 119.688636 79.952732 L 115.243468 76.259167 L 110.379130 72.883416 L 105.269141 69.957771 L 99.913497 67.482230 L 94.312192 65.456791 L 88.465222 63.881452 L 82.372581 62.756212 L 76.034263 62.081069 L 69.450264 61.856022 L 63.038927 62.089659 L 56.778792 62.790573 L 50.669836 63.958766 L 44.712038 65.594243 L 43.523228 60.363118 L 41.770942 55.829484 L 39.455178 51.993340 L 38.085990 50.336825 L 36.575932 48.854682 L 34.925003 47.546910 L 33.133202 46.413509 L 31.200529 45.454477 L 29.126984 44.669816 L 24.557275 43.623603 L 19.424073 43.274866 L 15.569028 43.645936 L 11.370410 44.759152 L 6.828204 46.614518 L 1.942394 49.212041 L 6.292209 50.067569 L 10.215960 51.644625 L 13.713662 53.943217 L 16.785329 56.963351 L 18.125322 58.711352 L 19.286647 60.574449 L 21.073295 64.645939 L 22.145281 69.177838 L 22.502608 74.170161 L 22.392660 77.358644 L 18.269606 80.986928 L 14.696299 84.780123 L 11.672737 88.738232 L 9.198918 92.861259 L 7.274840 97.149209 L 5.900502 101.602085 L 5.075900 106.219891 L 4.801033 111.002631 L 5.096515 115.958883 L 5.982962 120.712406 L 7.460376 125.263205 L 9.528759 129.611282 L 12.188115 133.756643 L 15.438444 137.699290 L 19.279749 141.439228 L 23.712032 144.976462 L 28.489616 148.146059 L 33.531747 150.893039 L 38.838430 153.217402 L 44.409671 155.119150 L 50.245474 156.598285 L 56.345846 157.654808 L 62.710792 158.288721 L 69.340316 158.500025 L 75.950084 158.287003 L 82.310734 157.647937 L 88.422273 156.582825 L 94.284704 155.091666 L 99.898035 153.174456 L 105.262269 150.831196 L 110.377411 148.061882 L 115.243468 144.866514 L 119.688636 141.355049 L 123.541107 137.637443 L 126.800885 133.713693 L 129.467971 129.583794 L 131.542368 125.247742 L 133.024077 120.705534 L 133.913101 115.957165 L 134.209442 111.002631 Z" transform="scale(1.000000,1.000000) translate(288.000000,294.000000)" fill="#feeb0a" opacity="1.000000"></path>
        <path d="M 11.579451 5.843128 Q 12.359933 5.843128 13.081511 6.034567 Q 13.479115 6.137650 14.097610 6.402719 L 11.903425 8.493822 L 14.244871 10.938350 L 16.439055 8.847247 Q 16.954468 9.907525 17.160633 10.702733 Q 17.484607 11.895545 17.484607 13.485960 Q 17.484607 17.138027 15.989910 19.133409 Q 14.495214 21.128792 11.623630 21.128792 Q 8.928758 21.128792 7.323616 19.214403 Q 5.718474 17.300013 5.718474 13.485960 Q 5.718474 9.023960 8.015742 7.094845 Q 9.503075 5.843128 11.579451 5.843128 Z M 22.020237 13.809934 Q 22.020237 10.908898 21.313386 8.950330 Q 20.739069 7.080119 19.619887 5.843128 L 22.123320 3.501683 L 19.752422 1.027703 L 17.131181 3.501683 Q 15.938369 2.780105 15.069531 2.485584 Q 13.611649 1.999623 11.579451 1.999623 Q 7.338342 1.999623 4.569841 4.532508 Q 1.212296 7.580805 1.212296 13.485960 Q 1.212296 19.435294 4.658197 22.483591 Q 7.470877 24.972297 11.653082 24.972297 Q 15.864739 24.972297 18.721597 22.336330 Q 22.020237 19.288033 22.020237 13.809934 Z M 29.324369 18.654812 L 29.324369 8.979782 Q 29.324369 7.610257 29.648343 6.918132 Q 30.222660 5.695868 31.901432 5.695868 Q 34.051439 5.695868 34.846647 7.433544 Q 35.258977 8.376013 35.258977 9.922251 L 35.258977 18.654812 L 39.514812 18.654812 L 39.514812 2.603392 L 35.435690 2.603392 L 35.435690 4.871208 Q 35.376785 4.797577 35.141168 4.429425 Q 34.905551 4.061274 34.581577 3.781478 Q 33.594931 2.897914 32.674551 2.573940 Q 31.754171 2.249967 30.517181 2.249967 Q 26.953472 2.249967 25.716481 4.812303 Q 25.024356 6.226006 25.024356 8.979782 L 25.024356 18.654812 Z M 52.414852 10.408211 Q 52.017248 10.157868 51.612281 10.003244 Q 51.207314 9.848620 50.500462 9.716086 L 49.557994 9.539373 Q 48.232647 9.303756 47.658330 8.965056 Q 46.686410 8.390739 46.686410 7.183201 Q 46.686410 6.108198 47.282816 5.629600 Q 47.879221 5.151003 48.733334 5.151003 Q 50.088132 5.151003 51.229403 5.946211 Q 52.370674 6.741419 52.414852 8.847247 Z M 49.867241 12.366779 Q 51.030601 12.514040 51.531288 12.734931 Q 52.429578 13.117809 52.429578 13.927743 Q 52.429578 14.914389 51.744816 15.289904 Q 51.060053 15.665419 49.734707 15.665419 Q 48.247373 15.665419 47.628878 14.929116 Q 47.187096 14.384251 47.039835 13.456508 L 42.990165 13.456508 Q 43.122700 15.562337 44.168251 16.917135 Q 45.832297 19.037690 49.881967 19.037690 Q 52.517934 19.037690 54.564859 17.992139 Q 56.611783 16.946588 56.611783 14.045551 L 56.611783 6.682515 Q 56.611783 5.916759 56.641235 4.827029 Q 56.685413 4.002369 56.891578 3.707848 Q 57.097743 3.413326 57.510073 3.221887 L 57.510073 2.603392 L 52.944991 2.603392 Q 52.753552 3.089353 52.679921 3.516409 Q 52.606291 3.943465 52.562113 4.488330 Q 51.693274 3.545861 50.559367 2.883188 Q 49.204568 2.102706 47.496344 2.102706 Q 45.316885 2.102706 43.895819 3.347059 Q 42.474753 4.591412 42.474753 6.873954 Q 42.474753 9.833894 44.757294 11.159241 Q 46.009010 11.880818 48.438812 12.190066 Z M 69.924153 12.896917 Q 69.806344 13.795208 69.320384 14.516786 Q 68.613532 15.488706 67.126199 15.488706 Q 65.005644 15.488706 64.225163 13.382878 Q 63.812833 12.263696 63.812833 10.408211 Q 63.812833 8.641082 64.225163 7.566079 Q 64.976192 5.563333 67.052569 5.563333 Q 68.525176 5.563333 69.143671 6.358541 Q 69.762166 7.153749 69.894701 8.420191 L 74.179988 8.420191 Q 74.032727 6.505802 72.795737 4.797577 Q 70.822443 2.043802 66.949486 2.043802 Q 63.076529 2.043802 61.250496 4.341069 Q 59.424463 6.638336 59.424463 10.305129 Q 59.424463 14.443155 61.441935 16.740423 Q 63.459407 19.037690 67.008390 19.037690 Q 70.027235 19.037690 71.948988 17.682891 Q 73.870740 16.328093 74.224166 12.896917 Z M 77.066298 24.235994 L 81.189599 24.235994 L 81.189599 12.543492 L 86.417355 18.581182 L 91.615659 18.581182 L 86.005025 12.440409 L 91.836550 2.603392 L 86.770780 2.603392 L 82.927275 9.465742 L 81.189599 7.654435 L 81.189599 2.603392 L 77.066298 2.603392 Z M 103.617408 24.235994 L 108.226669 24.235994 L 108.226669 18.728442 L 107.033857 8.596904 L 104.839672 8.596904 L 103.617408 18.728442 Z M 103.720491 6.859228 L 108.108860 6.859228 L 108.108860 2.603392 L 103.720491 2.603392 Z" transform="scale(1.000000,1.000000) translate(303.000000,387.000000)" fill="url(#105553182556880105553156831680)" opacity="0.988173"></path>
        <path d="M 8.157520 1.600770 L 8.157520 4.609776 L 11.247304 4.609776 L 11.247304 1.600770 Z M 1.261040 1.600770 L 1.261040 4.609776 L 4.350824 4.609776 L 4.350824 1.600770 Z M 15.043902 1.600770 L 15.043902 4.609776 L 18.133687 4.609776 L 18.133687 1.600770 Z" transform="scale(1.000000,1.000000) translate(409.000000,343.000000)" fill="url(#105553182568400105553156793312)" opacity="0.988173"></path>
        <path d="M 10.181514 5.802412 Q 10.859725 5.802412 11.486751 5.968766 Q 11.832255 6.058341 12.369706 6.288677 L 10.463036 8.105772 L 12.497671 10.229982 L 14.404341 8.412887 Q 14.852217 9.334231 15.031367 10.025239 Q 15.312889 11.061751 15.312889 12.443767 Q 15.312889 15.617286 14.014049 17.351204 Q 12.715210 19.085122 10.219903 19.085122 Q 7.878154 19.085122 6.483341 17.421584 Q 5.088529 15.758046 5.088529 12.443767 Q 5.088529 8.566444 7.084774 6.890110 Q 8.377215 5.802412 10.181514 5.802412 Z M 19.254194 12.725289 Q 19.254194 10.204389 18.639964 8.502462 Q 18.140903 6.877313 17.168373 5.802412 L 19.343769 3.767777 L 17.283541 1.617974 L 15.005774 3.767777 Q 13.969262 3.140751 13.214271 2.884822 Q 11.947423 2.462540 10.181514 2.462540 Q 6.496138 2.462540 4.090406 4.663528 Q 1.172816 7.312392 1.172816 12.443767 Q 1.172816 17.613531 4.167184 20.262395 Q 6.611306 22.424995 10.245496 22.424995 Q 13.905280 22.424995 16.387790 20.134431 Q 19.254194 17.485567 19.254194 12.725289 Z M 25.601231 16.935319 L 25.601231 8.528055 Q 25.601231 7.337985 25.882753 6.736552 Q 26.381814 5.674447 27.840609 5.674447 Q 29.708890 5.674447 30.399898 7.184428 Q 30.758198 8.003400 30.758198 9.347027 L 30.758198 16.935319 L 34.456371 16.935319 L 34.456371 2.987194 L 30.911756 2.987194 L 30.911756 4.957846 Q 30.860570 4.893864 30.655827 4.573953 Q 30.451084 4.254042 30.169562 4.010909 Q 29.312200 3.243123 28.512422 2.961601 Q 27.712644 2.680079 26.637743 2.680079 Q 23.541003 2.680079 22.466102 4.906661 Q 21.864669 6.135119 21.864669 8.528055 L 21.864669 16.935319 Z M 45.666057 9.769310 Q 45.320553 9.551770 44.968651 9.417408 Q 44.616749 9.283045 44.002520 9.167877 L 43.183547 9.014320 Q 42.031867 8.809577 41.532806 8.515258 Q 40.688240 8.016197 40.688240 6.966888 Q 40.688240 6.032748 41.206496 5.616863 Q 41.724752 5.200979 42.466946 5.200979 Q 43.644219 5.200979 44.635944 5.891987 Q 45.627668 6.582995 45.666057 8.412887 Z M 43.452272 11.471237 Q 44.463192 11.599202 44.898271 11.791148 Q 45.678854 12.123856 45.678854 12.827660 Q 45.678854 13.685022 45.083819 14.011332 Q 44.488784 14.337641 43.337104 14.337641 Q 42.044663 14.337641 41.507213 13.697819 Q 41.123319 13.224350 40.995355 12.418174 L 37.476332 12.418174 Q 37.591500 14.248066 38.500048 15.425339 Q 39.946046 17.268027 43.465069 17.268027 Q 45.755633 17.268027 47.534338 16.359479 Q 49.313044 15.450932 49.313044 12.930032 L 49.313044 6.531809 Q 49.313044 5.866394 49.338637 4.919457 Q 49.377027 4.202856 49.556177 3.946927 Q 49.735327 3.690998 50.093628 3.524645 L 50.093628 2.987194 L 46.126729 2.987194 Q 45.960376 3.409477 45.896393 3.780573 Q 45.832411 4.151670 45.794022 4.625139 Q 45.039032 3.806166 44.053705 3.230326 Q 42.876432 2.552115 41.392045 2.552115 Q 39.498171 2.552115 38.263314 3.633414 Q 37.028457 4.714714 37.028457 6.698163 Q 37.028457 9.270249 39.011906 10.421929 Q 40.099604 11.048955 42.211017 11.317680 Z M 60.881031 11.931909 Q 60.778660 12.712492 60.356377 13.339518 Q 59.742148 14.184084 58.449707 14.184084 Q 56.607018 14.184084 55.928807 12.354192 Q 55.570506 11.381662 55.570506 9.769310 Q 55.570506 8.233736 55.928807 7.299596 Q 56.581426 5.559279 58.385724 5.559279 Q 59.665369 5.559279 60.202820 6.250287 Q 60.740270 6.941295 60.855438 8.041790 L 64.579204 8.041790 Q 64.451240 6.378252 63.376338 4.893864 Q 61.661614 2.500929 58.296149 2.500929 Q 54.930684 2.500929 53.343925 4.497174 Q 51.757166 6.493420 51.757166 9.679735 Q 51.757166 13.275536 53.510279 15.271782 Q 55.263392 17.268027 58.347335 17.268027 Q 60.970606 17.268027 62.640542 16.090754 Q 64.310479 14.913481 64.617593 11.931909 Z M 67.087307 21.785172 L 70.670312 21.785172 L 70.670312 11.624795 L 75.213050 16.871337 L 79.730196 16.871337 L 74.854750 11.535219 L 79.922142 2.987194 L 75.520165 2.987194 L 72.180293 8.950337 L 70.670312 7.376375 L 70.670312 2.987194 L 67.087307 2.987194 Z M 90.159299 21.785172 L 94.164586 21.785172 L 94.164586 16.999302 L 93.128074 8.195347 L 91.221404 8.195347 L 90.159299 16.999302 Z M 90.248874 6.685367 L 94.062215 6.685367 L 94.062215 2.987194 L 90.248874 2.987194 Z" transform="scale(1.000000,1.000000) translate(408.000000,441.000000)" fill="url(#105553182564720105553156606144)" opacity="0.988173"></path>
    </g>
</svg>