<?xml version="1.0" encoding="UTF-8" standalone="yes"?>
<!DOCTYPE svg PUBLIC "-//W3C//DTD SVG 1.1//EN" "http://www.w3.org/Graphics/SVG/1.1/DTD/svg11.dtd">

<svg width="500" height="500" viewBox="0 0 500 500" xmlns="http://www.w3.org/2000/svg" xmlns:xlink="http://www.w3.org/1999/xlink" version="1.1" baseProfile="full">
    <defs>
        <linearGradient id="105553144348912105553119238048" x1="100.000000%" x2="100.000000%" y1="0.000000%" y2="100.000000%">
            <stop offset="0%" style="stop-color:#272727;stop-opacity:1.000000"></stop>
            <stop offset="100%" style="stop-color:#6d7171;stop-opacity:1.000000"></stop>
        </linearGradient>
        <linearGradient id="105553144354112105553119393792" x1="100.000000%" x2="100.000000%" y1="0.000000%" y2="100.000000%">
            <stop offset="0%" style="stop-color:#272727;stop-opacity:1.000000"></stop>
            <stop offset="100%" style="stop-color:#6d7171;stop-opacity:1.000000"></stop>
        </linearGradient>
        <linearGradient id="105553144327264105553119389312" x1="100.000000%" x2="100.000000%" y1="0.000000%" y2="100.000000%">
            <stop offset="0%" style="stop-color:#272727;stop-opacity:1.000000"></stop>
            <stop offset="100%" style="stop-color:#6d7171;stop-opacity:1.000000"></stop>
        </linearGradient>
    </defs>
    <g transform="scale(1,-1) translate(0,-500)">
        <rect width="500" height="500" style="fill:rgb(255,254,254)"></rect>
        <path d="M 138.786012 103.454525 L 138.558388 99.928456 L 137.875515 96.565600 L 136.737391 93.365953 L 135.144014 90.329514 L 133.095383 87.456279 L 130.591495 84.746247 L 127.632350 82.199413 L 124.217945 79.815775 L 123.960257 77.496566 L 123.874359 75.349151 L 124.106278 72.411480 L 124.802038 69.714331 L 125.961642 67.257693 L 127.585093 65.041557 L 127.796612 64.833258 L 128.225018 64.448873 L 129.732497 63.151839 L 135.350147 58.444697 L 132.394218 58.452212 L 129.607942 58.612193 L 126.991318 58.924640 L 124.544343 59.389554 L 122.267015 60.006935 L 120.159332 60.776784 L 118.221291 61.699101 L 116.452891 62.773886 L 115.212754 63.695130 L 114.034895 64.740921 L 111.866009 67.206148 L 109.946224 70.169577 L 108.275533 73.631219 L 103.362245 72.909687 L 98.380243 72.669177 L 95.558533 72.780841 L 92.659528 73.115837 L 89.683216 73.674164 L 86.629585 74.455826 L 85.943485 76.664451 L 85.087742 78.823679 L 84.062354 80.933512 L 82.867321 82.993953 L 81.502641 85.005003 L 79.968313 86.966663 L 78.264336 88.878937 L 76.390708 90.741825 L 74.278718 92.572505 L 72.134523 94.181996 L 69.958120 95.570300 L 67.749509 96.737419 L 65.508686 97.683352 L 63.235649 98.408101 L 60.930398 98.911667 L 58.592929 99.194052 L 58.129087 101.599159 L 57.974473 103.454525 L 58.159150 106.530708 L 58.713179 109.471596 L 59.636562 112.277191 L 60.929302 114.947496 L 62.591399 117.482513 L 64.622854 119.882245 L 67.023670 122.146695 L 69.793848 124.275865 L 72.780912 126.160231 L 75.935466 127.793345 L 79.257511 129.175207 L 82.747052 130.305819 L 86.404092 131.185183 L 90.228635 131.813298 L 94.220684 132.190166 L 98.380243 132.315788 L 102.539801 132.190166 L 106.531851 131.813298 L 110.356394 131.185183 L 114.013435 130.305819 L 117.502976 129.175207 L 120.825022 127.793345 L 123.979574 126.160231 L 126.966637 124.275865 L 129.736813 122.146695 L 132.137629 119.882245 L 134.169084 117.482513 L 135.831181 114.947496 L 137.123922 112.277191 L 138.047306 109.471596 L 138.601335 106.530708 L 138.786012 103.454525 Z M 127.241506 42.914588 L 127.084746 40.780587 L 126.614465 38.707792 L 125.830662 36.696203 L 124.733336 34.745818 L 123.322486 32.856634 L 121.598110 31.028649 L 119.560209 29.261863 L 117.208781 27.556273 L 114.614697 25.953758 L 111.848827 24.496198 L 108.911168 23.183590 L 105.801717 22.015935 L 102.520472 20.993232 L 99.067431 20.115478 L 95.442590 19.382674 L 91.645948 18.794818 L 90.722556 16.430505 L 89.670323 14.250875 L 88.489248 12.255927 L 87.179328 10.445660 L 85.740562 8.820071 L 84.172950 7.379159 L 82.476490 6.122922 L 80.651181 5.051359 L 78.975118 4.262181 L 77.142300 3.578227 L 75.152723 2.999499 L 73.006387 2.525994 L 68.243426 1.894657 L 62.853401 1.684212 L 65.655789 3.024202 L 68.084521 4.570339 L 70.139599 6.322626 L 71.821022 8.281063 L 73.128794 10.445654 L 74.062915 12.816399 L 74.623387 15.393301 L 74.810211 18.176362 L 71.074232 18.454453 L 67.459591 18.876418 L 63.966287 19.442260 L 60.594315 20.151979 L 57.343673 21.005575 L 54.214357 22.003049 L 51.206365 23.144403 L 48.319694 24.429636 L 45.619845 25.823313 L 43.172324 27.289998 L 40.977129 28.829692 L 39.034259 30.442396 L 37.343711 32.128114 L 35.905484 33.886845 L 34.719576 35.718592 L 33.785986 37.623357 L 33.818868 37.621478 L 33.883156 37.615841 L 34.105950 37.593293 L 34.928407 37.503102 L 38.080817 37.142336 L 42.109369 36.781569 L 45.880230 36.661315 L 49.162566 36.756874 L 52.343965 37.043552 L 55.424429 37.521349 L 58.403961 38.190267 L 61.282565 39.050305 L 64.060242 40.101465 L 66.736995 41.343748 L 69.312827 42.777154 L 72.920499 45.209108 L 76.115859 47.832175 L 78.898909 50.646358 L 81.269652 53.651658 L 83.228090 56.848079 L 84.774223 60.235624 L 85.908054 63.814296 L 86.629585 67.584097 L 90.394016 67.503570 L 94.025298 67.261987 L 97.523434 66.859349 L 100.888426 66.295654 L 104.120279 65.570902 L 107.218994 64.685093 L 110.184576 63.638226 L 113.017026 62.430300 L 116.350901 60.682299 L 119.240254 58.736742 L 121.685088 56.593626 L 123.685402 54.252950 L 125.241200 51.714710 L 126.352482 48.978904 L 127.019250 46.045531 L 127.241506 42.914588 Z M 83.880893 70.126637 L 83.695680 67.006431 L 83.140040 64.002194 L 82.213972 61.113923 L 80.917474 58.341616 L 79.250545 55.685269 L 77.213184 53.144882 L 74.805390 50.720450 L 72.027160 48.411972 L 68.986948 46.302128 L 65.793205 44.473599 L 62.445928 42.926386 L 58.945113 41.660486 L 55.290756 40.675900 L 51.482855 39.972625 L 47.521407 39.550661 L 43.406407 39.410006 L 39.399321 39.556030 L 35.486737 39.994100 L 31.668640 40.724221 L 27.945016 41.746394 L 27.202010 38.476941 L 26.106831 35.643420 L 24.659478 33.245830 L 23.803736 32.210508 L 22.859950 31.284169 L 21.828119 30.466811 L 20.708243 29.758435 L 19.500323 29.159041 L 18.204357 28.668628 L 15.348289 28.014744 L 12.140038 27.796783 L 9.730635 28.028703 L 7.106499 28.724462 L 4.267620 29.884066 L 1.213988 31.507518 L 3.932623 32.042223 L 6.384967 33.027883 L 8.571031 34.464503 L 10.490823 36.352087 L 11.328318 37.444587 L 12.054146 38.609023 L 13.170802 41.153704 L 13.840793 43.986141 L 14.064122 47.106343 L 13.995405 49.099145 L 11.418496 51.366822 L 9.185179 53.737569 L 7.295453 56.211387 L 5.749316 58.788279 L 4.546768 61.468248 L 3.687806 64.251295 L 3.172430 67.137424 L 3.000638 70.126637 L 3.185314 73.224294 L 3.739343 76.195246 L 4.662727 79.039495 L 5.955467 81.757044 L 7.617564 84.347894 L 9.649020 86.812049 L 12.049835 89.149510 L 14.820013 91.360281 L 17.806003 93.341279 L 20.957334 95.058142 L 24.274011 96.510869 L 27.756037 97.699461 L 31.403414 98.623921 L 35.216146 99.284248 L 39.194237 99.680443 L 43.337690 99.812508 L 47.468795 99.679370 L 51.444201 99.279953 L 55.263913 98.614258 L 58.927933 97.682283 L 62.436264 96.484027 L 65.788910 95.019490 L 68.985875 93.288669 L 72.027160 91.291564 L 74.805390 89.096898 L 77.213184 86.773394 L 79.250545 84.321050 L 80.917474 81.739864 L 82.213972 79.029831 L 83.140040 76.190951 L 83.695680 73.223221 L 83.880893 70.126637 Z" transform="scale(1.000000,1.000000) translate(180.000000,183.000000)" fill="#feeb0a" opacity="1.000000"></path>
        <path d="M 7.612154 4.526955 Q 8.099955 4.526955 8.550941 4.646605 Q 8.799443 4.711031 9.186003 4.876700 L 7.814637 6.183639 L 9.278041 7.711469 L 10.649406 6.404530 Q 10.971539 7.067203 11.100392 7.564208 Q 11.302876 8.309715 11.302876 9.303725 Q 11.302876 11.586267 10.368690 12.833381 Q 9.434505 14.080495 7.639765 14.080495 Q 5.955470 14.080495 4.952257 12.884002 Q 3.949043 11.687508 3.949043 9.303725 Q 3.949043 6.514975 5.384835 5.309278 Q 6.314419 4.526955 7.612154 4.526955 Z M 14.137645 9.506209 Q 14.137645 7.693061 13.695863 6.468956 Q 13.336915 5.300074 12.637426 4.526955 L 14.202071 3.063552 L 12.720260 1.517314 L 11.081985 3.063552 Q 10.336477 2.612566 9.793453 2.428490 Q 8.882277 2.124765 7.612154 2.124765 Q 4.961461 2.124765 3.231147 3.707817 Q 1.132682 5.613003 1.132682 9.303725 Q 1.132682 13.022059 3.286370 14.927244 Q 5.044295 16.482686 7.658173 16.482686 Q 10.290458 16.482686 12.075995 14.835206 Q 14.137645 12.930021 14.137645 9.506209 Z M 18.702727 12.534258 L 18.702727 6.487364 Q 18.702727 5.631411 18.905211 5.198832 Q 19.264159 4.434917 20.313392 4.434917 Q 21.657146 4.434917 22.154151 5.520965 Q 22.411857 6.110008 22.411857 7.076407 L 22.411857 12.534258 L 25.071754 12.534258 L 25.071754 2.502120 L 22.522303 2.502120 L 22.522303 3.919505 Q 22.485488 3.873486 22.338227 3.643391 Q 22.190966 3.413296 21.988483 3.238424 Q 21.371828 2.686196 20.796591 2.483713 Q 20.221354 2.281229 19.448235 2.281229 Q 17.220916 2.281229 16.447798 3.882690 Q 16.015219 4.766254 16.015219 6.487364 L 16.015219 12.534258 Z M 33.134279 7.380132 Q 32.885777 7.223667 32.632672 7.127028 Q 32.379568 7.030388 31.937786 6.947554 L 31.348743 6.837108 Q 30.520401 6.689847 30.161453 6.478160 Q 29.554003 6.119212 29.554003 5.364501 Q 29.554003 4.692624 29.926756 4.393500 Q 30.299510 4.094377 30.833330 4.094377 Q 31.680079 4.094377 32.393374 4.591382 Q 33.106668 5.088387 33.134279 6.404530 Z M 31.542022 8.604237 Q 32.269122 8.696275 32.582051 8.834332 Q 33.143483 9.073630 33.143483 9.579839 Q 33.143483 10.196493 32.715506 10.431190 Q 32.287530 10.665887 31.459188 10.665887 Q 30.529605 10.665887 30.143046 10.205697 Q 29.866932 9.865157 29.774894 9.285318 L 27.243850 9.285318 Q 27.326684 10.601460 27.980154 11.448210 Q 29.020182 12.773556 31.551226 12.773556 Q 33.198706 12.773556 34.478033 12.120087 Q 35.757361 11.466617 35.757361 9.653469 L 35.757361 5.051572 Q 35.757361 4.572974 35.775768 3.891893 Q 35.803380 3.376481 35.932233 3.192405 Q 36.061086 3.008329 36.318792 2.888680 L 36.318792 2.502120 L 33.465616 2.502120 Q 33.345966 2.805846 33.299947 3.072756 Q 33.253928 3.339666 33.226317 3.680206 Q 32.683293 3.091163 31.974601 2.676992 Q 31.127852 2.189191 30.060211 2.189191 Q 28.698050 2.189191 27.809883 2.966912 Q 26.921717 3.744633 26.921717 5.171221 Q 26.921717 7.021184 28.348305 7.849526 Q 29.130628 8.300512 30.649254 8.493791 Z M 44.077592 8.935573 Q 44.003962 9.497005 43.700237 9.947991 Q 43.258454 10.555441 42.328871 10.555441 Q 41.003524 10.555441 40.515723 9.239299 Q 40.258017 8.539810 40.258017 7.380132 Q 40.258017 6.275676 40.515723 5.603799 Q 40.985117 4.352083 42.282852 4.352083 Q 43.203232 4.352083 43.589791 4.849088 Q 43.976350 5.346093 44.059185 6.137620 L 46.737489 6.137620 Q 46.645451 4.941126 45.872332 3.873486 Q 44.639024 2.152376 42.218425 2.152376 Q 39.797827 2.152376 38.656556 3.588168 Q 37.515286 5.023960 37.515286 7.315705 Q 37.515286 9.901972 38.776206 11.337764 Q 40.037126 12.773556 42.255241 12.773556 Q 44.142019 12.773556 45.343114 11.926807 Q 46.544209 11.080058 46.765100 8.935573 Z M 48.541433 16.022496 L 51.118496 16.022496 L 51.118496 8.714682 L 54.385843 12.488239 L 57.634783 12.488239 L 54.128137 8.650256 L 57.772840 2.502120 L 54.606734 2.502120 L 52.204544 6.791089 L 51.118496 5.659022 L 51.118496 2.502120 L 48.541433 2.502120 Z M 65.135877 16.022496 L 68.016665 16.022496 L 68.016665 12.580277 L 67.271157 6.248065 L 65.899792 6.248065 L 65.135877 12.580277 Z M 65.200303 5.162017 L 67.943034 5.162017 L 67.943034 2.502120 L 65.200303 2.502120 Z" transform="scale(1.000000,1.000000) translate(189.000000,241.000000)" fill="url(#105553144348912105553119238048)" opacity="0.988173"></path>
        <path d="M 5.723450 1.375482 L 5.723450 3.256110 L 7.654565 3.256110 L 7.654565 1.375482 Z M 1.413150 1.375482 L 1.413150 3.256110 L 3.344265 3.256110 L 3.344265 1.375482 Z M 10.027439 1.375482 L 10.027439 3.256110 L 11.958554 3.256110 L 11.958554 1.375482 Z" transform="scale(1.000000,1.000000) translate(255.000000,214.000000)" fill="url(#105553144354112105553119393792)" opacity="0.988173"></path>
        <path d="M 7.363460 4.251510 Q 7.787342 4.251510 8.179233 4.355481 Q 8.395173 4.411465 8.731080 4.555425 L 7.539411 5.691110 L 8.811058 7.018741 L 10.002727 5.883056 Q 10.282649 6.458896 10.394618 6.890776 Q 10.570569 7.538597 10.570569 8.402357 Q 10.570569 10.385806 9.758795 11.469505 Q 8.947020 12.553204 7.387453 12.553204 Q 5.923860 12.553204 5.052102 11.513492 Q 4.180344 10.473781 4.180344 8.402357 Q 4.180344 5.979030 5.427998 4.931321 Q 6.235773 4.251510 7.363460 4.251510 Z M 13.033885 8.578308 Q 13.033885 7.002745 12.649991 5.939041 Q 12.338078 4.923323 11.730247 4.251510 L 13.089869 2.979863 L 11.802227 1.636236 L 10.378622 2.979863 Q 9.730802 2.587972 9.258933 2.428016 Q 8.467153 2.164089 7.363460 2.164089 Q 5.060100 2.164089 3.556517 3.539707 Q 1.733024 5.195247 1.733024 8.402357 Q 1.733024 11.633459 3.604504 13.288999 Q 5.132080 14.640624 7.403449 14.640624 Q 9.690813 14.640624 11.242382 13.209021 Q 13.033885 11.553481 13.033885 8.578308 Z M 17.000783 11.209577 L 17.000783 5.955036 Q 17.000783 5.211243 17.176734 4.835347 Q 17.488647 4.171532 18.400394 4.171532 Q 19.568070 4.171532 19.999950 5.115270 Q 20.223888 5.627127 20.223888 6.466894 L 20.223888 11.209577 L 22.535246 11.209577 L 22.535246 2.491998 L 20.319861 2.491998 L 20.319861 3.723656 Q 20.287870 3.683667 20.159905 3.483723 Q 20.031941 3.283778 19.855990 3.131821 Q 19.320139 2.651954 18.820278 2.476003 Q 18.320416 2.300052 17.648603 2.300052 Q 15.713141 2.300052 15.041327 3.691665 Q 14.665432 4.459452 14.665432 5.955036 L 14.665432 11.209577 Z M 29.541300 6.730821 Q 29.325360 6.594859 29.105421 6.510882 Q 28.885482 6.426905 28.501588 6.354925 L 27.989731 6.258952 Q 27.269931 6.130988 26.958017 5.947039 Q 26.430164 5.635125 26.430164 4.979307 Q 26.430164 4.395470 26.754074 4.135542 Q 27.077984 3.875614 27.541855 3.875614 Q 28.277651 3.875614 28.897478 4.307494 Q 29.517306 4.739374 29.541300 5.883056 Z M 28.157684 7.794525 Q 28.789508 7.874503 29.061433 7.994470 Q 29.549297 8.202412 29.549297 8.642290 Q 29.549297 9.178141 29.177401 9.382084 Q 28.805504 9.586028 28.085704 9.586028 Q 27.277928 9.586028 26.942022 9.186139 Q 26.702088 8.890221 26.622110 8.386361 L 24.422721 8.386361 Q 24.494701 9.530043 25.062544 10.265839 Q 25.966293 11.417519 28.165682 11.417519 Q 29.597284 11.417519 30.708975 10.849677 Q 31.820666 10.281835 31.820666 8.706272 L 31.820666 4.707383 Q 31.820666 4.291498 31.836662 3.699663 Q 31.860655 3.251787 31.972624 3.091832 Q 32.084593 2.931876 32.308531 2.827905 L 32.308531 2.491998 L 29.829220 2.491998 Q 29.725249 2.755925 29.685260 2.987861 Q 29.645271 3.219796 29.621277 3.515714 Q 29.149408 3.003856 28.533580 2.643956 Q 27.797784 2.220074 26.870042 2.220074 Q 25.686370 2.220074 24.914585 2.895886 Q 24.142799 3.571698 24.142799 4.811354 Q 24.142799 6.418908 25.382455 7.138708 Q 26.062266 7.530599 27.381899 7.698552 Z M 39.050658 8.082445 Q 38.986676 8.570310 38.722749 8.962201 Q 38.338856 9.490054 37.531080 9.490054 Q 36.379400 9.490054 35.955518 8.346372 Q 35.731580 7.738541 35.731580 6.730821 Q 35.731580 5.771087 35.955518 5.187250 Q 36.363405 4.099552 37.491091 4.099552 Q 38.290869 4.099552 38.626776 4.531432 Q 38.962683 4.963312 39.034663 5.651121 L 41.362016 5.651121 Q 41.282038 4.611410 40.610225 3.683667 Q 39.538523 2.188083 37.435107 2.188083 Q 35.331691 2.188083 34.339967 3.435736 Q 33.348242 4.683390 33.348242 6.674836 Q 33.348242 8.922212 34.443938 10.169866 Q 35.539633 11.417519 37.467098 11.417519 Q 39.106643 11.417519 40.150353 10.681723 Q 41.194063 9.945928 41.386010 8.082445 Z M 42.929581 14.240735 L 45.168959 14.240735 L 45.168959 7.890499 L 48.008170 11.169588 L 50.831386 11.169588 L 47.784232 7.834514 L 50.951353 2.491998 L 48.200117 2.491998 L 46.112697 6.218963 L 45.168959 5.235236 L 45.168959 2.491998 L 42.929581 2.491998 Z M 57.349575 14.240735 L 59.852880 14.240735 L 59.852880 11.249566 L 59.205060 5.747094 L 58.013391 5.747094 L 57.349575 11.249566 Z M 57.405560 4.803356 L 59.788898 4.803356 L 59.788898 2.491998 L 57.405560 2.491998 Z" transform="scale(1.000000,1.000000) translate(254.000000,275.000000)" fill="url(#105553144327264105553119389312)" opacity="0.988173"></path>
    </g>
</svg>